<?xml version="1.0" encoding="UTF-8" standalone="no"?>
<!DOCTYPE svg PUBLIC "-//W3C//DTD SVG 1.1//EN" "http://www.w3.org/Graphics/SVG/1.1/DTD/svg11.dtd">
<svg width="100%" height="100%" viewBox="0 0 512 512" version="1.1" xmlns="http://www.w3.org/2000/svg" xmlns:xlink="http://www.w3.org/1999/xlink" xml:space="preserve" xmlns:serif="http://www.serif.com/" style="fill-rule:evenodd;clip-rule:evenodd;stroke-linejoin:round;stroke-miterlimit:2;">
    <g transform="matrix(1,0,0,1,-256,-256)">
        <path d="M768,512L767.383,592.148L765.529,625.073L762.428,649.928L758.064,670.365L752.411,687.765L745.433,702.814L737.078,715.901L727.269,727.269L715.901,737.078L702.814,745.433L687.765,752.411L670.365,758.064L649.928,762.428L625.073,765.529L592.148,767.383L512,768L431.852,767.383L398.927,765.529L374.072,762.428L353.635,758.064L336.235,752.411L321.186,745.433L308.099,737.078L296.731,727.269L286.922,715.901L278.567,702.814L271.589,687.765L265.936,670.365L261.572,649.928L258.471,625.073L256.617,592.148L256,512L256.617,431.852L258.471,398.927L261.572,374.072L265.936,353.635L271.589,336.235L278.567,321.186L286.922,308.099L296.731,296.731L308.099,286.922L321.186,278.567L336.235,271.589L353.635,265.936L374.072,261.572L398.927,258.471L431.852,256.617L512,256L592.148,256.617L625.073,258.471L649.928,261.572L670.365,265.936L687.765,271.589L702.814,278.567L715.901,286.922L727.269,296.731L737.078,308.099L745.433,321.186L752.411,336.235L758.064,353.635L762.428,374.072L765.529,398.927L767.383,431.852L768,512L768,512Z" style="fill:url(#_Linear1);fill-rule:nonzero;"/>
        <path d="M767.898,525.231L767.383,592.148L765.529,625.073L762.428,649.928L758.064,670.365L752.411,687.765L745.433,702.814L737.078,715.901L727.269,727.269L715.901,737.078L702.814,745.433L687.765,752.411L670.365,758.064L649.928,762.428L625.073,765.529L592.148,767.383L512,768L431.852,767.383L398.927,765.529L374.072,762.428L353.635,758.064L336.235,752.411L321.186,745.433L308.099,737.078L296.731,727.269L286.922,715.901L278.567,702.814L271.589,687.765L265.936,670.365L261.572,649.928L258.471,625.073L256.617,592.148L256,512L256.617,431.852L258.471,398.927L261.572,374.072L265.936,353.635L271.589,336.235L278.567,321.186L286.922,308.099L296.731,296.731L308.099,286.922L321.186,278.567L336.235,271.589L353.635,265.936L374.072,261.572L398.927,258.471L431.852,256.617L512,256L592.148,256.617L625.073,258.471L649.928,261.572L670.365,265.936L687.765,271.589L702.814,278.567L715.901,286.922L727.269,296.731L737.078,308.099L745.433,321.186L752.411,336.235L758.064,353.635L762.428,374.072L765.529,398.927L767.383,431.852L768,512L767.898,525.191C766.676,523.489 754.83,507.114 754.668,511.898L767.898,525.231ZM754.666,512L754.052,432.279L752.242,400.129L749.268,376.294L745.169,357.096L739.978,341.116L733.714,327.607L726.356,316.083L717.816,306.184L707.917,297.644L696.393,290.286L682.884,284.022L666.904,278.831L647.706,274.732L623.871,271.758L591.721,269.948L512,269.334L432.279,269.948L400.129,271.758L376.294,274.732L357.096,278.831L341.116,284.022L327.607,290.286L316.083,297.644L306.184,306.184L297.644,316.083L290.286,327.607L284.022,341.116L278.831,357.096L274.732,376.294L271.758,400.129L269.948,432.279L269.334,512L269.948,591.721L271.758,623.871L274.732,647.706L278.831,666.904L284.022,682.884L290.286,696.393L297.644,707.917L306.184,717.816L316.083,726.356L327.607,733.714L341.116,739.978L357.096,745.169L376.294,749.268L400.129,752.242L432.279,754.052L512,754.666L591.721,754.052L623.871,752.242L647.706,749.268L666.904,745.169L682.884,739.978L696.393,733.714L707.917,726.356L717.816,717.816L726.356,707.917L733.714,696.393L739.978,682.884L745.169,666.904L749.268,647.706L752.242,623.871L754.052,591.721L754.666,512Z" style="fill:rgb(39,45,7);"/>
    </g>
    <g transform="matrix(1.42394,0,0,1.19349,-202.073,-56.3368)">
        <path d="M196.555,272.15L196.555,253.822L285.345,209.091L285.345,228.62L214.935,263.095L285.345,297.897L285.345,317.426L196.555,272.15Z" style="fill:rgb(199,212,103);fill-rule:nonzero;"/>
        <path d="M295.678,344.81L334.541,179.416L347.709,179.416L308.937,344.81L295.678,344.81Z" style="fill:rgb(199,212,103);fill-rule:nonzero;"/>
        <path d="M446.741,272.15L357.95,317.426L357.95,297.897L428.269,263.095L357.95,228.62L357.95,209.091L446.741,253.822L446.741,272.15Z" style="fill:rgb(199,212,103);fill-rule:nonzero;"/>
    </g>
    <defs>
        <linearGradient id="_Linear1" x1="0" y1="0" x2="1" y2="0" gradientUnits="userSpaceOnUse" gradientTransform="matrix(3.1351e-14,512,-512,3.1351e-14,512,256)"><stop offset="0" style="stop-color:rgb(28,32,8);stop-opacity:1"/><stop offset="1" style="stop-color:rgb(8,9,6);stop-opacity:1"/></linearGradient>
    </defs>
</svg>
